# xmcd
#
# Track frame offsets:
#	150
#	1209
#	16211
#	29266
#	44814
#	57059
#	75303
#	87654
#	102991
#	121726
#	133025
#	182121
#
# Disc length: 2804 seconds
#
# Revision: 0
# Processed by: cddbd v1.5.1PL0 Copyright (c) Steve Scherf et al.
# Submitted via: audiograbber 1.83.01
#
DISCID=910af20c
DTITLE=Handsome Hank And His Lonesome Boys - Greatest Hits
DYEAR=1900
DGENRE=Country
TTITLE0=Trailer
TTITLE1=She's The One
TTITLE2=Paradise City
TTITLE3=Manic Depression
TTITLE4=Daddy Cool
TTITLE5=I'm A Believer
TTITLE6=Blitzkrieg Bop
TTITLE7=Video Killed The Radio Star
TTITLE8=Black Hole Sun
TTITLE9=Da' Ya' Think I'm Sexy
TTITLE10=Mongoloid
TTITLE11=Data
EXTD=
EXTT0=
EXTT1=
EXTT2=
EXTT3=
EXTT4=
EXTT5=
EXTT6=
EXTT7=
EXTT8=
EXTT9=
EXTT10=
EXTT11=
PLAYORDER=
